<?xml version="1.0" encoding="utf-8"?>
<!DOCTYPE svg PUBLIC "-//W3C//DTD SVG 1.1//EN" "http://www.w3.org/Graphics/SVG/1.1/DTD/svg11.dtd">
<svg version="1.1" id="Layer_1" xmlns="http://www.w3.org/2000/svg" xmlns:xlink="http://www.w3.org/1999/xlink" x="0px" y="0px"
	 viewBox="314.7 489 212.5 212.5" style="enable-background:new 314.7 489 212.5 212.5;" xml:space="preserve">
<g id="kika_symbol">
	<path id="linii" d="M447,605.9h23.7c-1.3-3.3-2-6.9-2-10.7c0-3.7,0.7-7.3,2-10.5h-24.2l39.5-39.5c-6.7-2.9-12-8.3-14.9-14.9
		l-39.4,39.5v-24.2c-3.3,1.3-6.8,2-10.6,2c-3.8,0-7.3-0.7-10.6-2v23.8L371,530c-2.8,6.7-8.1,12.1-14.7,15.1l39.7,39.7h-24.7
		c1.3,3.3,2,6.8,2,10.5c0,3.8-0.7,7.4-2,10.7h24.1L356,645.3c6.7,2.9,12,8.2,14.9,14.9l39.4-39.4v24.2c3.3-1.3,6.9-2,10.6-2
		c3.7,0,7.3,0.7,10.6,2v-24.6l39.6,39.6c3-6.6,8.4-11.9,15.1-14.7L447,605.9z M420.9,606.3c-6.1,0-11-4.9-11-11c0-6.1,4.9-11,11-11
		c6.1,0,11,4.9,11,11C432,601.3,427,606.3,420.9,606.3z"/>
	<path id="krug" style="fill:#FFCC33;" d="M344.5,507.8c6.1,0,11,4.9,11,11s-4.9,11-11,11c-6.1,0-11-5-11-11
		S338.4,507.8,344.5,507.8 M344.5,490c-15.9,0-28.8,12.9-28.8,28.8c0,15.9,12.9,28.8,28.8,28.8s28.8-12.9,28.8-28.8
		C373.3,502.9,360.4,490,344.5,490L344.5,490z"/>
	<path id="krug_1_" style="fill:#99CC66;" d="M344.5,584.3c6.1,0,11,4.9,11,11s-4.9,11-11,11c-6.1,0-11-5-11-11
		S338.4,584.3,344.5,584.3 M344.5,566.5c-15.9,0-28.8,12.9-28.8,28.8c0,15.9,12.9,28.8,28.8,28.8s28.8-12.9,28.8-28.8
		C373.3,579.4,360.4,566.5,344.5,566.5L344.5,566.5z"/>
	<path id="krug_2_" style="fill:#99CC66;" d="M497.4,584.3c6.1,0,11,4.9,11,11s-4.9,11-11,11s-11-5-11-11S491.3,584.3,497.4,584.3
		 M497.4,566.5c-15.9,0-28.8,12.9-28.8,28.8c0,15.9,12.9,28.8,28.8,28.8s28.8-12.9,28.8-28.8C526.2,579.4,513.3,566.5,497.4,566.5
		L497.4,566.5z"/>
	<path id="krug_3_" style="fill:#FFCC33;" d="M344.5,660.7c6.1,0,11,4.9,11,11c0,6.1-4.9,11-11,11c-6.1,0-11-5-11-11
		S338.4,660.7,344.5,660.7 M344.5,642.9c-15.9,0-28.8,12.9-28.8,28.8c0,15.9,12.9,28.8,28.8,28.8s28.8-12.9,28.8-28.8
		C373.3,655.8,360.4,642.9,344.5,642.9L344.5,642.9z"/>
	<path id="krug_4_" style="fill:#99CCCC;" d="M420.9,660.7c6.1,0,11,4.9,11,11c0,6.1-4.9,11-11,11c-6.1,0-11-5-11-11
		S414.9,660.7,420.9,660.7 M420.9,642.9c-15.9,0-28.8,12.9-28.8,28.8c0,15.9,12.9,28.8,28.8,28.8s28.8-12.9,28.8-28.8
		C449.7,655.8,436.9,642.9,420.9,642.9L420.9,642.9z"/>
	<path id="krug_5_" style="fill:#FFCC33;" d="M497.4,660.7c6.1,0,11,4.9,11,11c0,6.1-4.9,11-11,11s-11-5-11-11
		S491.3,660.7,497.4,660.7 M497.4,642.9c-15.9,0-28.8,12.9-28.8,28.8c0,15.9,12.9,28.8,28.8,28.8s28.8-12.9,28.8-28.8
		C526.2,655.8,513.3,642.9,497.4,642.9L497.4,642.9z"/>
	<path id="krug_6_" style="fill:#99CCCC;" d="M420.9,507.8c6.1,0,11,4.9,11,11s-4.9,11-11,11c-6.1,0-11-5-11-11
		S414.9,507.8,420.9,507.8 M420.9,490c-15.9,0-28.8,12.9-28.8,28.8c0,15.9,12.9,28.8,28.8,28.8s28.8-12.9,28.8-28.8
		C449.7,502.9,436.9,490,420.9,490L420.9,490z"/>
	<path id="krug_7_" style="fill:#FFCC33;" d="M497.4,507.8c6.1,0,11,4.9,11,11s-4.9,11-11,11s-11-5-11-11S491.3,507.8,497.4,507.8
		 M497.4,490c-15.9,0-28.8,12.9-28.8,28.8c0,15.9,12.9,28.8,28.8,28.8s28.8-12.9,28.8-28.8C526.2,502.9,513.3,490,497.4,490
		L497.4,490z"/>
</g>
</svg>
