<svg version="1.1" id="Layer_1" xmlns="http://www.w3.org/2000/svg" xmlns:xlink="http://www.w3.org/1999/xlink" x="0px" y="0px" viewBox="223.6 572.3 1024 1024" enable-background="new 223.6 572.3 1024 1024" xml:space="preserve"><g id="kika_symbol"><path id="linii" d="M838.9 1126.5h93.9c-5.2-13.1-7.9-27.3-7.9-42.4 0-14.7 2.8-28.9 7.9-41.6h-95.9L993.4 886c-26.5-11.5-47.5-32.9-59-59L778.2 983.4v-95.9c-13.1 5.2-26.9 7.9-42 7.9 -15.1 0-28.9-2.8-42-7.9v94.3L537.8 825.8c-11.1 26.5-32.1 47.9-58.2 59.8l157.3 157.3h-97.9c5.2 13.1 7.9 26.9 7.9 41.6 0 15.1-2.8 29.3-7.9 42.4h95.5l-156.1 155.7c26.5 11.5 47.5 32.5 59 59l156.1-156.1v95.9c13.1-5.2 27.3-7.9 42-7.9 14.7 0 28.9 2.8 42 7.9v-97.5l156.9 156.9c11.9-26.1 33.3-47.1 59.8-58.2L838.9 1126.5zM735.4 1128.1c-24.2 0-43.6-19.4-43.6-43.6s19.4-43.6 43.6-43.6 43.6 19.4 43.6 43.6C779.4 1108.2 759.6 1128.1 735.4 1128.1z"/><path id="krug" fill="#FFCC33" d="M432.8 737.8c24.2 0 43.6 19.4 43.6 43.6 0 24.2-19.4 43.6-43.6 43.6 -24.2 0-43.6-19.8-43.6-43.6C389.2 757.6 408.6 737.8 432.8 737.8M432.8 667.3c-63 0-114.1 51.1-114.1 114.1 0 63 51.1 114.1 114.1 114.1s114.1-51.1 114.1-114.1C546.9 718.4 495.8 667.3 432.8 667.3L432.8 667.3z"/><path id="krug_1_" fill="#99CC66" d="M432.8 1040.9c24.2 0 43.6 19.4 43.6 43.6s-19.4 43.6-43.6 43.6c-24.2 0-43.6-19.8-43.6-43.6C389.2 1060.7 408.6 1040.9 432.8 1040.9M432.8 970.4c-63 0-114.1 51.1-114.1 114.1 0 63 51.1 114.1 114.1 114.1s114.1-51.1 114.1-114.1S495.8 970.4 432.8 970.4L432.8 970.4z"/><path id="krug_2_" fill="#99CC66" d="M1038.5 1040.9c24.2 0 43.6 19.4 43.6 43.6s-19.4 43.6-43.6 43.6 -43.6-19.8-43.6-43.6C994.9 1060.7 1014.4 1040.9 1038.5 1040.9M1038.5 970.4c-63 0-114.1 51.1-114.1 114.1 0 63 51.1 114.1 114.1 114.1s114.1-51.1 114.1-114.1S1101.5 970.4 1038.5 970.4L1038.5 970.4z"/><path id="krug_3_" fill="#FFCC33" d="M432.8 1343.6c24.2 0 43.6 19.4 43.6 43.6s-19.4 43.6-43.6 43.6c-24.2 0-43.6-19.8-43.6-43.6S408.6 1343.6 432.8 1343.6M432.8 1273.1c-63 0-114.1 51.1-114.1 114.1 0 63 51.1 114.1 114.1 114.1s114.1-51.1 114.1-114.1C546.9 1324.2 495.8 1273.1 432.8 1273.1L432.8 1273.1z"/><path id="krug_4_" fill="#99CCCC" d="M735.4 1343.6c24.2 0 43.6 19.4 43.6 43.6s-19.4 43.6-43.6 43.6 -43.6-19.8-43.6-43.6S711.7 1343.6 735.4 1343.6M735.4 1273.1c-63 0-114.1 51.1-114.1 114.1 0 63 51.1 114.1 114.1 114.1s114.1-51.1 114.1-114.1C849.5 1324.2 798.8 1273.1 735.4 1273.1L735.4 1273.1z"/><path id="krug_5_" fill="#FFCC33" d="M1038.5 1343.6c24.2 0 43.6 19.4 43.6 43.6s-19.4 43.6-43.6 43.6 -43.6-19.8-43.6-43.6S1014.4 1343.6 1038.5 1343.6M1038.5 1273.1c-63 0-114.1 51.1-114.1 114.1 0 63 51.1 114.1 114.1 114.1s114.1-51.1 114.1-114.1C1152.6 1324.2 1101.5 1273.1 1038.5 1273.1L1038.5 1273.1z"/><path id="krug_6_" fill="#99CCCC" d="M735.4 737.8c24.2 0 43.6 19.4 43.6 43.6 0 24.2-19.4 43.6-43.6 43.6s-43.6-19.8-43.6-43.6C691.9 757.6 711.7 737.8 735.4 737.8M735.4 667.3c-63 0-114.1 51.1-114.1 114.1 0 63 51.1 114.1 114.1 114.1s114.1-51.1 114.1-114.1C849.5 718.4 798.8 667.3 735.4 667.3L735.4 667.3z"/><path id="krug_7_" fill="#FFCC33" d="M1038.5 737.8c24.2 0 43.6 19.4 43.6 43.6 0 24.2-19.4 43.6-43.6 43.6s-43.6-19.8-43.6-43.6C994.9 757.6 1014.4 737.8 1038.5 737.8M1038.5 667.3c-63 0-114.1 51.1-114.1 114.1 0 63 51.1 114.1 114.1 114.1s114.1-51.1 114.1-114.1C1152.6 718.4 1101.5 667.3 1038.5 667.3L1038.5 667.3z"/></g></svg>